<?xml version="1.0" standalone="no"?>
<!DOCTYPE svg PUBLIC "-//W3C//DTD SVG 20010904//EN"
 "http://www.w3.org/TR/2001/REC-SVG-20010904/DTD/svg10.dtd">
<svg version="1.0" xmlns="http://www.w3.org/2000/svg"
 width="200.000000pt" height="200.000000pt" viewBox="0 0 200.000000 200.000000"
 preserveAspectRatio="xMidYMid meet">

<g transform="translate(0.000000,200.000000) scale(0.100000,-0.100000)"
fill="#000000" stroke="none">
<path d="M895 1994 c-157 -24 -284 -67 -400 -134 -69 -41 -185 -131 -217 -169
-143 -170 -212 -300 -255 -484 -24 -102 -24 -307 1 -412 90 -390 360 -666 750
-768 115 -29 337 -29 451 0 188 49 349 140 479 269 132 133 216 284 267 479
32 124 33 332 1 450 -50 190 -143 357 -267 480 -123 124 -295 220 -474 266
-74 18 -274 32 -336 23z m-86 -774 l163 -220 -163 -220 -164 -219 -83 -1 c-60
0 -81 3 -76 11 4 7 74 102 156 211 82 110 151 205 154 212 2 6 -65 105 -150
218 -84 113 -157 211 -160 217 -5 8 18 11 76 11 l83 -1 164 -219z m749 -607
l3 -53 -250 0 -251 0 0 55 0 55 248 -2 247 -3 3 -52z"/>
</g>
</svg>
